<svg xmlns="http://www.w3.org/2000/svg" width="358" height="106" viewBox="0 0 358 106">
  <title>Piotr Kałuża Photography - Logo</title>
<metadata><?xpacket begin="﻿" id="W5M0MpCehiHzreSzNTczkc9d"?>
<x:xmpmeta xmlns:x="adobe:ns:meta/" x:xmptk="Adobe XMP Core 5.6-c142 79.160924, 2017/07/13-01:06:39        ">
   <rdf:RDF xmlns:rdf="http://www.w3.org/1999/02/22-rdf-syntax-ns#">
      <rdf:Description rdf:about=""
            xmlns:dc="http://purl.org/dc/elements/1.1/"
            xmlns:photoshop="http://ns.adobe.com/photoshop/1.0/"
            xmlns:xmp="http://ns.adobe.com/xap/1.0/"
            xmlns:xmpRights="http://ns.adobe.com/xap/1.0/rights/"
            xmlns:Iptc4xmpCore="http://iptc.org/std/Iptc4xmpCore/1.0/xmlns/">
         <dc:creator>
            <rdf:Seq>
               <rdf:li>Piotr Paweł Kałuża</rdf:li>
            </rdf:Seq>
         </dc:creator>
         <dc:title>
            <rdf:Alt>
               <rdf:li xml:lang="x-default">Piotr Kałuża Photography - Logo</rdf:li>
            </rdf:Alt>
         </dc:title>
         <dc:rights>
            <rdf:Alt>
               <rdf:li xml:lang="x-default">© Piotr Paweł Kałuża. Wszelkie prawa zastrzeżone (All rights reserved)</rdf:li>
            </rdf:Alt>
         </dc:rights>
         <photoshop:AuthorsPosition>Piotr Paweł Kałuża</photoshop:AuthorsPosition>
         <xmp:CreatorTool>Adobe Photoshop CC 2018 (Windows)</xmp:CreatorTool>
         <xmpRights:Marked>True</xmpRights:Marked>
         <Iptc4xmpCore:CreatorContactInfo>
            <rdf:Description>
               <Iptc4xmpCore:CiEmailWork>kontakt@piotrkaluza.pl</Iptc4xmpCore:CiEmailWork>
               <Iptc4xmpCore:CiUrlWork>piotrkaluza.pl</Iptc4xmpCore:CiUrlWork>
            </rdf:Description>
         </Iptc4xmpCore:CreatorContactInfo>
      </rdf:Description>
   </rdf:RDF>
</x:xmpmeta>
                                                                                                    
                                                                                                    
                                                                                                    
                                                                                                    
                                                                                                    
                                                                                                    
                                                                                                    
                                                                                                    
                                                                                                    
                                                                                                    
                                                                                                    
                                                                                                    
                                                                                                    
                                                                                                    
                                                                                                    
                                                                                                    
                                                                                                    
                                                                                                    
                                                                                                    
                                                                                                    
                           
<?xpacket end="w"?></metadata>
<defs>
    <style>
      .cls-1 {
        fill-rule: evenodd;
      }
    </style>
  </defs>
  <path id="Piotr_Kałuża" data-name="Piotr Kałuża" class="cls-1" d="M18.268,16.508a1.517,1.517,0,0,1,1.089.439,1.358,1.358,0,0,1,.456,1,10.582,10.582,0,0,1-.351,2.074l-5.3,21.059q-1.195,4.782-3.091,6.363-1.335,1.126-4.988,1.723L5.659,51.032a31.668,31.668,0,0,1,6.988-.809,38.33,38.33,0,0,1,4.565.352,52.989,52.989,0,0,0,5.338.387,18.36,18.36,0,0,0,4.636-.738l0.421-1.969a17.448,17.448,0,0,1-5.51.984,20.552,20.552,0,0,1-4.773-.666q0.877-2.7,1.579-5.479l2.827-10.941q1.786,0.105,2.627.105a23.637,23.637,0,0,0,9.932-2.039,16.062,16.062,0,0,0,6.761-5.361,11.8,11.8,0,0,0,2.294-6.768,8.555,8.555,0,0,0-1.635-5.027A10.774,10.774,0,0,0,36.79,9.407a22.6,22.6,0,0,0-8.42-1.336q-13.5,0-21.516,8.648Q0.737,23.294.737,31.274a12.511,12.511,0,0,0,1.942,7.207q1.942,2.848,4.026,2.848A1.9,1.9,0,0,0,8.047,40.8a1.708,1.708,0,0,0,.565-1.3q0-1.195-1.723-2.461a9.576,9.576,0,0,1-2.883-3.217,8.584,8.584,0,0,1-.809-3.85A16.315,16.315,0,0,1,6.306,20.85a23.269,23.269,0,0,1,8.832-7.594,25.125,25.125,0,0,1,11.7-2.971q5.233,0,7.779,2.074a6.873,6.873,0,0,1,2.546,5.625,11.694,11.694,0,0,1-2.092,6.68,11.906,11.906,0,0,1-4.747,4.324,10.551,10.551,0,0,1-4.9,1.125l-3.235-.176,2.657-9.9q1.008-3.983,1.876-6.451A59.472,59.472,0,0,1,17.987,15l-0.421,1.582a5,5,0,0,1,.7-0.07h0ZM54.814,6.647a3.826,3.826,0,0,0-1.02,2.689,2.686,2.686,0,0,0,.7,1.934,2.327,2.327,0,0,0,1.758.738,3.2,3.2,0,0,0,2.408-1.178,3.925,3.925,0,0,0,1.072-2.725,2.534,2.534,0,0,0-.7-1.846A2.4,2.4,0,0,0,57.24,5.54,3.188,3.188,0,0,0,54.814,6.647Zm-7.4,18.58a3.107,3.107,0,0,1,1.6-.562,0.593,0.593,0,0,1,.633.7,5.031,5.031,0,0,1-.246,1.441Q44.127,43.9,44.127,48.29a3.023,3.023,0,0,0,.721,2.145,2.538,2.538,0,0,0,1.951.773,7.864,7.864,0,0,0,3.621-1.266,45.678,45.678,0,0,0,7.031-5.8L56.08,42.805q-4.641,4.36-5.766,4.359a0.675,0.675,0,0,1-.527-0.334A1.353,1.353,0,0,1,49.541,46q0-2.566,3.716-15.047,2.279-7.628,2.279-8.648a1.642,1.642,0,0,0-.6-1.336,2.642,2.642,0,0,0-1.72-.492,10.534,10.534,0,0,0-4.933,1.635,27.383,27.383,0,0,0-6.408,5.5l1.547,1.2A36.128,36.128,0,0,1,47.414,25.227Zm18.165,3.2a23.909,23.909,0,0,0-4.219,13.641,9.435,9.435,0,0,0,2.3,6.715,7.917,7.917,0,0,0,6.064,2.461q6.117,0,11.6-6.205a20.6,20.6,0,0,0,5.484-14.01q0-4.886-2.285-7.629a7.156,7.156,0,0,0-5.73-2.742q-7.91,0-13.219,7.77h0Zm13.8-2.883q1.424,2.25,1.424,7.523a21.131,21.131,0,0,1-3.094,11.777Q75.282,48.5,72.329,48.5a3.866,3.866,0,0,1-3.375-1.934,13.06,13.06,0,0,1-1.723-7.207q0-7.523,2.8-11.8t5.783-4.271A4.16,4.16,0,0,1,79.378,25.544Zm20.449-2.6h-5.7l-0.633,2.5h5.7L95.61,39.43a34.66,34.66,0,0,0-1.336,7.734,4.994,4.994,0,0,0,.756,3.094,2.488,2.488,0,0,0,2.057.949,10.1,10.1,0,0,0,4.184-1.3,89.543,89.543,0,0,0,10.3-7.1l-1.336-1.617a43.824,43.824,0,0,1-5.625,3.9,7.847,7.847,0,0,1-3.34,1.3,1.463,1.463,0,0,1-1.108-.422,1.938,1.938,0,0,1-.4-1.371,33.424,33.424,0,0,1,1.46-7.378l3.067-11.782h7.286l0.562-2.5h-7.28l2.526-9.84L101.8,15.243ZM124.871,43.4a73.418,73.418,0,0,1,2.36-8.735,20.336,20.336,0,0,1,2.725-4.413,20.037,20.037,0,0,1,3.583-3.763,15.022,15.022,0,0,1,4.233-2.111A10.474,10.474,0,0,0,141.2,22.8a2.21,2.21,0,0,0-.019-3.217,2.425,2.425,0,0,0-1.761-.686q-1.444,0-3.594,1.906a45.114,45.114,0,0,0-8.031,9.6l1.529-6.325a16.254,16.254,0,0,0,.463-2.438,0.933,0.933,0,0,0-.369-0.756,1.551,1.551,0,0,0-1-.3,12.235,12.235,0,0,0-5.149,1.811,26.829,26.829,0,0,0-6.729,5.432l1.09,1.23a33.341,33.341,0,0,1,3.937-3.568,3.524,3.524,0,0,1,1.617-.721,0.717,0.717,0,0,1,.774.844,13.976,13.976,0,0,1-.317,1.934q-1.336,6.258-3.129,13.219l-2.461,9.457h5.239ZM199.377,9.161q-2.883,0-7.383-.422l-0.457,1.969a21.4,21.4,0,0,1,4.061.3,0.833,0.833,0,0,1,.72.51,1.113,1.113,0,0,1-.246.6,71.355,71.355,0,0,1-6.687,5.977q-3.2,2.673-6.67,5.046a29.93,29.93,0,0,1-6.071,3.357l2.8-10.662q0.6-2.247,2.532-7.268h-2.282q-12.042,0-16.9,3.92t-4.862,8.807a4.539,4.539,0,0,0,.855,2.883,2.449,2.449,0,0,0,1.938,1.09,2.213,2.213,0,0,0,1.641-.721,2.326,2.326,0,0,0,.7-1.67,4.234,4.234,0,0,0-.792-2.039,4.782,4.782,0,0,1-.861-2.32q0-2.566,3.124-4.641,4.035-2.742,10.983-3.164l-4.292,16.277q-2.991,11.426-4.855,17.121a7.979,7.979,0,0,1-2.17,3.709,10.568,10.568,0,0,1-4.723,1.846l-0.211,1.688a59.176,59.176,0,0,1,9.23-1.125,35.11,35.11,0,0,1,3.685.246,31.152,31.152,0,0,0,3.3.246q0.175,0,.878-0.035l0.457-1.758q-0.844.071-1.3,0.07a11.111,11.111,0,0,1-4.292-1.02q0.282-1.864,1.408-6.189l3.73-14.24a32.1,32.1,0,0,1,3.624,5.608,92.222,92.222,0,0,1,3.695,9.827A48.432,48.432,0,0,0,188.708,54.2a16.744,16.744,0,0,0,5.436,5.309,12.54,12.54,0,0,0,6.28,1.688,9.922,9.922,0,0,0,6.334-1.969q2.5-1.969,2.5-4.078a1.869,1.869,0,0,0-.6-1.389,2,2,0,0,0-1.441-.58,2.063,2.063,0,0,0-1.406.563,6.434,6.434,0,0,0-1.09,2.25q-1.058,3.093-3.977,3.094-3.029,0-5.948-3.094t-5.737-11.918q-3.132-9.879-4.4-12.621a23.5,23.5,0,0,0-3.062-4.957,123.7,123.7,0,0,0,14.65-11.285,33.521,33.521,0,0,1,5.027-3.832,18.756,18.756,0,0,1,4.711-1.758l0.211-.879a63.762,63.762,0,0,1-6.82.422h0Zm30.874,12.27a19.044,19.044,0,0,0-2.285-.141,17.283,17.283,0,0,0-7.313,1.336,22.667,22.667,0,0,0-7.031,5.484,30.666,30.666,0,0,0-5.326,8.3,21.078,21.078,0,0,0-1.986,8.3,8.119,8.119,0,0,0,1.476,5.063,3.688,3.688,0,0,0,3.129,1.441,9.01,9.01,0,0,0,4.711-1.617,29.819,29.819,0,0,0,7.207-6.223l-1.406,4.781a5.231,5.231,0,0,0-.281,1.441,1.59,1.59,0,0,0,.457,1.23,1.958,1.958,0,0,0,1.371.422,7.5,7.5,0,0,0,2.6-.492,19.225,19.225,0,0,0,4.289-2.285q1.125-.773,5.133-4.43l-1.125-1.371a23.029,23.029,0,0,1-4.183,3.234,4.221,4.221,0,0,1-1.793.738,0.882,0.882,0,0,1-.879-1.09,32.381,32.381,0,0,1,.773-4.852q1.406-6.925,2.988-12.234l2.637-8.894-2.32.492Zm-6.433,14.977a15.561,15.561,0,0,1-4.079,7.541q-2.776,2.619-5.2,2.619a2.535,2.535,0,0,1-2.109-1.055,5.732,5.732,0,0,1-.809-3.445,21.92,21.92,0,0,1,2.022-9.018q2.021-4.517,4.377-6.258a9.033,9.033,0,0,1,5.519-1.74,16.535,16.535,0,0,1,3.2.387ZM261.759,21.08l0.808-3.166L251.9,25.027l1.208-5.06q1.969-8.284,2.76-10.83a7.476,7.476,0,0,1,1.776-3.388,3.474,3.474,0,0,1,2.215-.6,18.519,18.519,0,0,1,3.094.281,18.576,18.576,0,0,0,3.024.352,3.421,3.421,0,0,0,2.356-.779,2.352,2.352,0,0,0,.879-1.806,2.219,2.219,0,0,0-.843-1.77,3.562,3.562,0,0,0-2.356-.708,16.105,16.105,0,0,0-8.6,2.557,16.035,16.035,0,0,0-6.134,6.647q-1.126,2.247-3.305,11.128l-1.964,7.9-7.493,5-0.738,3.164,7.44-4.974-1.077,4.329q-2.181,8.881-2.18,11.689a3.267,3.267,0,0,0,.721,2.229,2.3,2.3,0,0,0,1.81.825q2.391,0,6.153-2.549a33.511,33.511,0,0,0,6.469-5.643l-1.2-1.266q-0.562.422-2.672,2.145a32.721,32.721,0,0,1-3.937,2.988,3.009,3.009,0,0,1-1.442.457,0.869,0.869,0,0,1-.843-1.085,7.15,7.15,0,0,1,.246-1.436l2.327-10.17,1.546-6.474Zm20.7,14.94a15.253,15.253,0,0,1-4.742,7.4q-3.62,3.252-5.585,3.252a1.38,1.38,0,0,1-1.036-.528,1.828,1.828,0,0,1-.474-1.267q0-1.2,2.25-9.751,2.531-9.505,2.531-11.934a2.9,2.9,0,0,0-.528-1.918,1.718,1.718,0,0,0-1.371-.616,9.2,9.2,0,0,0-3.99,1.318,42.447,42.447,0,0,0-7.189,5.537l1.547,1.23A27.164,27.164,0,0,1,267.6,25.6a3.732,3.732,0,0,1,1.723-.65q0.7,0,.7.986,0,1.69-2.356,10.174-1.863,6.689-2.32,8.907a15.139,15.139,0,0,0-.316,2.957,3.872,3.872,0,0,0,.7,2.57,2.425,2.425,0,0,0,1.932.81,10.919,10.919,0,0,0,5.305-1.793,30.968,30.968,0,0,0,7.728-6.293,21.437,21.437,0,0,0-.761,4.887,3.484,3.484,0,0,0,.791,2.443,2.507,2.507,0,0,0,1.916.861q3.339,0,10.406-7.348l-1.16-1.3a42.668,42.668,0,0,1-4.394,4.078,2.7,2.7,0,0,1-1.407.527,0.933,0.933,0,0,1-.7-0.352,1.474,1.474,0,0,1-.316-1.02q0-1.478,2.918-12.182l3.3-12.287h-5Zm31.693-6.229q-4.078,4.039-9.492,8.956-8.016,7.27-9.984,9.587a2.448,2.448,0,0,0-.739,1.46q0,0.641,1.3.641a2.618,2.618,0,0,0,1.582-.8,4.754,4.754,0,0,1,2.777-1.252,24.944,24.944,0,0,1,6.188,1.236,29.453,29.453,0,0,0,7.7,1.518,11.32,11.32,0,0,0,5.379-1.163,9.924,9.924,0,0,0,3.621-3.333,7.538,7.538,0,0,0,1.442-4.143,3.236,3.236,0,0,0-.686-2.133,2.127,2.127,0,0,0-1.7-.829,1.849,1.849,0,0,0-1.406.6,2.025,2.025,0,0,0-.563,1.441,4.262,4.262,0,0,0,.492,1.617,4.1,4.1,0,0,1,.563,1.688,2.2,2.2,0,0,1-.791,1.74,3.362,3.362,0,0,1-2.268.686,19.735,19.735,0,0,1-6.117-1.3,41.918,41.918,0,0,0-4.184-1.213,14.54,14.54,0,0,0-2.882-.264,29.782,29.782,0,0,0-3.129.226q3.164-2.81,7.945-7.376l10.9-10.431q4.254-4.074,5.45-5.549a1.211,1.211,0,0,0,.386-0.775,0.723,0.723,0,0,0-.3-0.51,1.055,1.055,0,0,0-.721-0.264,2.381,2.381,0,0,0-1.266.563,5.73,5.73,0,0,1-3.551,1.266,44.978,44.978,0,0,1-6.117-.668,28,28,0,0,0-4.183-.422,7.339,7.339,0,0,0-4.957,1.723,5.257,5.257,0,0,0-2,4.113,4.6,4.6,0,0,0,1.072,3.111,3.078,3.078,0,0,0,2.338,1.248,1.577,1.577,0,0,0,1.125-.475,1.456,1.456,0,0,0,.492-1.072q0-1.266-1.582-1.441a1.2,1.2,0,0,1-1.266-1.3,1.607,1.607,0,0,1,.563-1.266,2.384,2.384,0,0,1,1.617-.492q0.844,0,3.34.281,1.793,0.176,3.27.176a22.306,22.306,0,0,0,5.871-.879ZM313.8,9.354a3.392,3.392,0,0,0-1.055,2.514,3.431,3.431,0,0,0,1.055,2.549,3.479,3.479,0,0,0,2.531,1.037,3.421,3.421,0,0,0,2.513-1.037,3.466,3.466,0,0,0,1.038-2.549,3.542,3.542,0,0,0-3.551-3.551A3.481,3.481,0,0,0,313.8,9.354Zm40.26,12.076a19.044,19.044,0,0,0-2.285-.141,17.278,17.278,0,0,0-7.312,1.336,22.644,22.644,0,0,0-7.031,5.484,30.669,30.669,0,0,0-5.327,8.3,21.078,21.078,0,0,0-1.986,8.3,8.113,8.113,0,0,0,1.477,5.063,3.685,3.685,0,0,0,3.128,1.441,9.01,9.01,0,0,0,4.711-1.617,29.819,29.819,0,0,0,7.207-6.223l-1.406,4.781a5.231,5.231,0,0,0-.281,1.441,1.59,1.59,0,0,0,.457,1.23,1.958,1.958,0,0,0,1.371.422,7.51,7.51,0,0,0,2.6-.492,19.225,19.225,0,0,0,4.289-2.285q1.125-.773,5.133-4.43l-1.125-1.371A23.035,23.035,0,0,1,353.5,45.9a4.216,4.216,0,0,1-1.793.738,0.882,0.882,0,0,1-.879-1.09A32.521,32.521,0,0,1,351.6,40.7q1.407-6.925,2.988-12.234l2.637-8.894-2.32.492Zm-6.433,14.977a15.568,15.568,0,0,1-4.078,7.541q-2.778,2.619-5.2,2.619a2.536,2.536,0,0,1-2.11-1.055,5.733,5.733,0,0,1-.808-3.445,21.919,21.919,0,0,1,2.021-9.018q2.022-4.517,4.377-6.258a9.034,9.034,0,0,1,5.52-1.74,16.535,16.535,0,0,1,3.2.387Z"/>
  <path id="fotografia" class="cls-1" d="M201.454,80.05h4.9l-4.164,16.734q-0.923,3.712-1.845,4.666a3.962,3.962,0,0,1-2.953.953,21.574,21.574,0,0,1-2.748-.184,11.332,11.332,0,0,0-1.272-.1,2.035,2.035,0,0,0-1.323.38,1.248,1.248,0,0,0-.461,1.015,1.507,1.507,0,0,0,.666,1.241,3.231,3.231,0,0,0,1.959.5,10.291,10.291,0,0,0,7.147-3.076q3.291-3.077,4.788-9.044l3.211-13.084h5.505l0.328-1.456h-5.433l1.03-4.368a14.192,14.192,0,0,1,1.745-4.522,3.02,3.02,0,0,1,2.445-1.671,8.113,8.113,0,0,1,1.54.205,15.762,15.762,0,0,0,2.711.431,1.573,1.573,0,0,0,1.13-.41,1.358,1.358,0,0,0,.431-1.025,1.446,1.446,0,0,0-.636-1.169,3.047,3.047,0,0,0-1.886-.492,9.491,9.491,0,0,0-4.717,1.446,11.512,11.512,0,0,0-4.061,3.948,26.508,26.508,0,0,0-2.768,7.629h-4.9Zm16.616,1.743a13.944,13.944,0,0,0-2.461,7.957,5.5,5.5,0,0,0,1.343,3.917A4.617,4.617,0,0,0,220.49,95.1q3.567,0,6.767-3.62a12.013,12.013,0,0,0,3.2-8.172,6.751,6.751,0,0,0-1.333-4.45,4.174,4.174,0,0,0-3.342-1.6q-4.615,0-7.711,4.532h0Zm8.049-1.682a8.6,8.6,0,0,1,.83,4.389,12.326,12.326,0,0,1-1.8,6.87q-1.416,2.133-3.138,2.133a2.257,2.257,0,0,1-1.969-1.128,7.618,7.618,0,0,1-1.005-4.2,12.476,12.476,0,0,1,1.631-6.88q1.631-2.492,3.373-2.492A2.428,2.428,0,0,1,226.119,80.112Zm11.929-1.518h-3.326l-0.369,1.456h3.322l-2.088,8.162a20.255,20.255,0,0,0-.779,4.512,2.914,2.914,0,0,0,.441,1.8,1.452,1.452,0,0,0,1.2.554,5.892,5.892,0,0,0,2.44-.759,52.171,52.171,0,0,0,6.009-4.143l-0.779-.943a25.548,25.548,0,0,1-3.282,2.276,4.574,4.574,0,0,1-1.948.759,0.851,0.851,0,0,1-.646-0.246,1.131,1.131,0,0,1-.236-0.8,19.481,19.481,0,0,1,.852-4.3l1.789-6.873h4.25l0.328-1.456h-4.247l1.474-5.74L239.2,74.1Zm12.35,3.2a13.944,13.944,0,0,0-2.461,7.957,5.506,5.506,0,0,0,1.343,3.917,4.62,4.62,0,0,0,3.538,1.436q3.569,0,6.768-3.62a12.018,12.018,0,0,0,3.2-8.172,6.757,6.757,0,0,0-1.333-4.45,4.175,4.175,0,0,0-3.343-1.6q-4.614,0-7.711,4.532h0Zm8.049-1.682a8.6,8.6,0,0,1,.831,4.389,12.326,12.326,0,0,1-1.805,6.87q-1.415,2.133-3.137,2.133a2.255,2.255,0,0,1-1.969-1.128,7.618,7.618,0,0,1-1-4.2,12.477,12.477,0,0,1,1.63-6.88q1.631-2.492,3.374-2.492A2.425,2.425,0,0,1,258.447,80.112Zm20.938-2.379q-0.841-.041-1.415-0.041a9.49,9.49,0,0,0-4.883,1.148,15.73,15.73,0,0,0-5.406,5.588,14.38,14.38,0,0,0-2.247,7.5,2.846,2.846,0,0,0,.587,1.876,1.726,1.726,0,0,0,1.35.708,5.779,5.779,0,0,0,2.37-.779q-1.336.841-2.858,1.641a14.19,14.19,0,0,0-3.947,2.625,4.584,4.584,0,0,0-1.275,3.1,3.8,3.8,0,0,0,1.59,2.984,6.684,6.684,0,0,0,4.359,1.3,9.945,9.945,0,0,0,5.571-1.538,7.755,7.755,0,0,0,3.21-4.061,15.784,15.784,0,0,0,.657-4.758,20.487,20.487,0,0,1,.2-2.912,57.78,57.78,0,0,1,1.247-5.742q1.246-4.82,2.739-9.62l-1.648.371ZM275.8,85.608a15.971,15.971,0,0,1-1.568,4.1,6.658,6.658,0,0,1-1.976,1.979,3.972,3.972,0,0,1-2.029.79,1.569,1.569,0,0,1-1.219-.656,2.456,2.456,0,0,1-.542-1.62,16.116,16.116,0,0,1,1.372-5.763,7.814,7.814,0,0,1,2.377-3.445,5.474,5.474,0,0,1,3.339-1.025,9.559,9.559,0,0,1,1.741.185Zm-1.49,8.47a21.247,21.247,0,0,1-.39,4.348,7.676,7.676,0,0,1-1.346,2.943,6.794,6.794,0,0,1-2.291,1.989,5.791,5.791,0,0,1-2.713.687,3.632,3.632,0,0,1-2.517-.933,2.778,2.778,0,0,1-1.038-2.1,3.69,3.69,0,0,1,.8-2.256,22.01,22.01,0,0,1,4.314-3.425,62.584,62.584,0,0,0,5.384-4q-0.184,2.153-.2,2.748h0Zm14.034-3.547a42.8,42.8,0,0,1,1.377-5.1,11.794,11.794,0,0,1,1.59-2.574,11.658,11.658,0,0,1,2.09-2.195,8.757,8.757,0,0,1,2.469-1.231,6.124,6.124,0,0,0,2-.923,1.287,1.287,0,0,0-.012-1.876,1.413,1.413,0,0,0-1.027-.4,3.548,3.548,0,0,0-2.1,1.112,26.311,26.311,0,0,0-4.685,5.6l0.892-3.69a9.43,9.43,0,0,0,.27-1.422A0.545,0.545,0,0,0,291,77.394a0.9,0.9,0,0,0-.585-0.174,7.134,7.134,0,0,0-3,1.056,15.652,15.652,0,0,0-3.926,3.169l0.636,0.718a19.513,19.513,0,0,1,2.3-2.082,2.057,2.057,0,0,1,.943-0.42,0.418,0.418,0,0,1,.452.492,8.169,8.169,0,0,1-.185,1.128q-0.78,3.651-1.825,7.711l-1.436,5.517h3.056Zm22.417-12.818a11.114,11.114,0,0,0-1.333-.082,10.082,10.082,0,0,0-4.266.779,13.209,13.209,0,0,0-4.1,3.2,17.886,17.886,0,0,0-3.107,4.84,12.285,12.285,0,0,0-1.159,4.84,4.736,4.736,0,0,0,.861,2.953,2.153,2.153,0,0,0,1.826.841,5.262,5.262,0,0,0,2.748-.943,17.411,17.411,0,0,0,4.2-3.63L305.617,93.3a3.077,3.077,0,0,0-.164.841,0.928,0.928,0,0,0,.267.718,1.141,1.141,0,0,0,.8.246,4.374,4.374,0,0,0,1.517-.287,11.212,11.212,0,0,0,2.5-1.333q0.657-.451,2.994-2.584l-0.656-.8a13.444,13.444,0,0,1-2.44,1.887,2.464,2.464,0,0,1-1.046.431,0.515,0.515,0,0,1-.513-0.636,18.893,18.893,0,0,1,.451-2.83q0.82-4.04,1.743-7.137l1.538-5.188-1.353.287Zm-3.753,8.736a9.077,9.077,0,0,1-2.379,4.4,4.626,4.626,0,0,1-3.035,1.528,1.48,1.48,0,0,1-1.231-.615,3.348,3.348,0,0,1-.471-2.01,12.791,12.791,0,0,1,1.179-5.26,9.09,9.09,0,0,1,2.553-3.65,5.27,5.27,0,0,1,3.22-1.015,9.631,9.631,0,0,1,1.866.226Zm9.274-6.4h4.9l-4.163,16.734q-0.923,3.712-1.846,4.666a3.959,3.959,0,0,1-2.953.953,21.574,21.574,0,0,1-2.748-.184,11.3,11.3,0,0,0-1.271-.1,2.031,2.031,0,0,0-1.323.38,1.246,1.246,0,0,0-.462,1.015,1.508,1.508,0,0,0,.667,1.241,3.226,3.226,0,0,0,1.958.5,10.289,10.289,0,0,0,7.147-3.076q3.293-3.077,4.789-9.044l3.211-13.084h5.5l0.328-1.456h-5.434l1.03-4.368a14.168,14.168,0,0,1,1.746-4.522,3.017,3.017,0,0,1,2.444-1.671,8.094,8.094,0,0,1,1.54.205,15.755,15.755,0,0,0,2.712.431,1.571,1.571,0,0,0,1.129-.41,1.355,1.355,0,0,0,.431-1.025,1.448,1.448,0,0,0-.635-1.169,3.049,3.049,0,0,0-1.887-.492,9.491,9.491,0,0,0-4.717,1.446,11.51,11.51,0,0,0-4.06,3.948,26.5,26.5,0,0,0-2.769,7.629h-4.9Zm21.455-10.961a2.231,2.231,0,0,0-.595,1.569,1.569,1.569,0,0,0,.41,1.128,1.36,1.36,0,0,0,1.026.431,1.865,1.865,0,0,0,1.4-.687,2.29,2.29,0,0,0,.626-1.589,1.48,1.48,0,0,0-.41-1.077,1.4,1.4,0,0,0-1.046-.42A1.859,1.859,0,0,0,337.741,69.089Zm-4.317,10.838a1.812,1.812,0,0,1,.933-0.328,0.346,0.346,0,0,1,.369.41,2.95,2.95,0,0,1-.143.841q-3.077,9.967-3.077,12.53a1.765,1.765,0,0,0,.421,1.251,1.479,1.479,0,0,0,1.138.451,4.583,4.583,0,0,0,2.112-.738,26.6,26.6,0,0,0,4.1-3.384l-0.8-.779q-2.708,2.543-3.363,2.543a0.394,0.394,0,0,1-.308-0.195,0.788,0.788,0,0,1-.143-0.482q0-1.5,2.167-8.777a38.039,38.039,0,0,0,1.33-5.045,0.957,0.957,0,0,0-.348-0.779,1.542,1.542,0,0,0-1-.287,6.146,6.146,0,0,0-2.878.954,15.976,15.976,0,0,0-3.738,3.209l0.9,0.7A21.04,21.04,0,0,1,333.424,79.927Zm21.63-2.215a11.127,11.127,0,0,0-1.333-.082,10.079,10.079,0,0,0-4.266.779,13.212,13.212,0,0,0-4.1,3.2,17.91,17.91,0,0,0-3.107,4.84,12.3,12.3,0,0,0-1.158,4.84,4.736,4.736,0,0,0,.861,2.953,2.151,2.151,0,0,0,1.825.841,5.256,5.256,0,0,0,2.748-.943,17.392,17.392,0,0,0,4.2-3.63l-0.82,2.789a3.077,3.077,0,0,0-.164.841,0.928,0.928,0,0,0,.267.718,1.14,1.14,0,0,0,.8.246,4.379,4.379,0,0,0,1.518-.287,11.212,11.212,0,0,0,2.5-1.333q0.656-.451,2.994-2.584l-0.656-.8a13.416,13.416,0,0,1-2.441,1.887,2.457,2.457,0,0,1-1.045.431,0.515,0.515,0,0,1-.513-0.636,18.893,18.893,0,0,1,.451-2.83q0.821-4.04,1.743-7.137l1.538-5.188-1.353.287ZM351.3,86.448a9.077,9.077,0,0,1-2.379,4.4,4.626,4.626,0,0,1-3.035,1.528,1.479,1.479,0,0,1-1.231-.615,3.34,3.34,0,0,1-.472-2.01,12.777,12.777,0,0,1,1.18-5.26,9.09,9.09,0,0,1,2.553-3.65,5.27,5.27,0,0,1,3.22-1.015A9.64,9.64,0,0,1,353,80.05Z"/>
</svg>
