<svg xmlns="http://www.w3.org/2000/svg" width="388.156" height="189.75" viewBox="0 0 388.156 189.75">
  <defs>
    <style>
      .cls-1 {
        fill: #fff;
        fill-rule: evenodd;
      }
    </style>
  </defs>
  <path id="PK" class="cls-1" d="M675.842,474.479q10.56-26.715,20.8-41.12a102.3,102.3,0,0,0,35.2,6.4q32,0,62.88-17.6t30.88-39.04q0-21.435-23.04-33.28T738.882,338q-63.682,0-119.04,26.24-13.125,6.405-13.12,14.4t5.12,8a2.6,2.6,0,0,0,1.92-.64q42.24-30.72,120-37.12v0.32a424.293,424.293,0,0,0-55.84,83.04q-22.245,43.68-22.24,71.52,0,14.4,8.96,14.4a1.134,1.134,0,0,0,1.28-1.28l-0.64-3.84Q665.282,501.2,675.842,474.479Zm125.44-73.28q-17.6,13.282-41.76,21.44t-39.36,8.16q-15.2,0-21.6-1.92,0-5.437,48.96-74.24,0-.638-8.32-5.76,79.68,0,79.68,26.24Q818.882,387.922,801.282,401.2Zm170.24-54.56q-9.285,0-21.76,5.28t-32.64,21.6l-28.48,25.92q-21.765,20.16-38.08,31.04c-0.215-1.49-.8-2.24-1.76-2.24s-2.24,1.07-3.84,3.2-2.4,3.47-2.4,4,3.84,8.91,11.52,25.12q16.635,30.4,37.28,48.8t40.8,18.4q10.237,0,16.8-4.8t6.56-12.16q0-12.165-15.36-26.88-4.8-4.8-6.72-4.8l-0.64.64q16,23.677,16,31.36,0,7.995-8.64,8-16.965,0-43.2-23.2T852.8,435.6q7.68-5.76,39.52-30.24t52.96-38.24q21.12-13.755,35.52-13.76,2.557,0,10.88,2.24c2.13,0,3.2-.745,3.2-2.24s-2.35-2.985-7.04-4.48A54.016,54.016,0,0,0,971.522,346.639Zm-107.2,40.96q3.2-5.437,6.24-10.24t4.96-8q1.92-3.195,6.4-9.92,0-1.275-4.48-3.36a19.406,19.406,0,0,0-8-2.08q-4.485,0-16.64,24.32-45.443,79.68-45.44,118.4,0,11.835,3.52,17.44t8.32,5.6q0.96,0-1.6-6.72a27.624,27.624,0,0,1-2.24-9.6q0-31.035,48.96-115.84h0Z" transform="translate(-606.719 -338)"/>
</svg>
